<?xml version="1.0" encoding="UTF-8" standalone="no"?><!DOCTYPE svg PUBLIC "-//W3C//DTD SVG 1.1//EN" "http://www.w3.org/Graphics/SVG/1.1/DTD/svg11.dtd"><svg width="100%" height="100%" viewBox="0 0 70 70" version="1.1" xmlns="http://www.w3.org/2000/svg" xmlns:xlink="http://www.w3.org/1999/xlink" xml:space="preserve" xmlns:serif="http://www.serif.com/" style="fill-rule:evenodd;clip-rule:evenodd;stroke-linejoin:round;stroke-miterlimit:1.41421;"><path d="M59.856,64.232c-0.83,0.834 -1.958,1.3 -3.135,1.3c-1.178,0 -2.304,-0.466 -3.132,-1.3l0.519,-0.524l5.76,-5.755c0.829,0.831 1.3,1.962 1.296,3.136c0,1.181 -0.473,2.309 -1.308,3.137l0,0.006Zm-51.623,-7.221l0,-39.966l12.21,0c0.617,0 1.112,-0.5 1.112,-1.112l0,-12.213l31.083,0l0,43.868l-10.826,-10.835l-0.01,-0.007c-0.096,-0.087 -0.197,-0.161 -0.315,-0.21c-0.032,-0.015 -0.059,-0.024 -0.095,-0.036c-0.037,-0.017 -0.075,-0.032 -0.117,-0.045l-10.21,-2.354c-0.374,-0.087 -0.767,0.027 -1.037,0.296c-0.271,0.273 -0.384,0.664 -0.298,1.038l2.352,10.212c0.018,0.04 0.033,0.081 0.048,0.12c0.01,0.031 0.019,0.06 0.036,0.091c0.045,0.117 0.121,0.225 0.211,0.315l0.008,0.011l10.833,10.827l-34.985,0Zm11.099,-51.72l0,9.531l-9.531,0l9.531,-9.531Zm14.469,37.905l-1.509,-6.53l6.532,1.503l-5.023,5.027Zm18.216,19.477l-17.277,-17.275l6.288,-6.293l17.272,17.283l-6.283,6.285Zm9.412,-6.292l-6.571,-6.57l0,-47.201c0,-0.612 -0.492,-1.11 -1.107,-1.11l-33.308,0c-0.019,0 -0.039,0.012 -0.061,0.012c-0.104,0.006 -0.203,0.026 -0.3,0.062c-0.032,0.007 -0.062,0.019 -0.095,0.034c-0.121,0.051 -0.235,0.129 -0.336,0.221l-13.318,13.321c-0.093,0.096 -0.17,0.206 -0.222,0.326c-0.018,0.036 -0.029,0.07 -0.036,0.105c-0.035,0.091 -0.053,0.187 -0.062,0.286c0,0.023 -0.013,0.045 -0.013,0.071l0,42.184c0,0.612 0.499,1.109 1.113,1.109l38.326,0l6.572,6.567c1.239,1.257 2.938,1.963 4.71,1.96c2.695,0.003 5.127,-1.623 6.159,-4.114c1.03,-2.493 0.459,-5.36 -1.455,-7.263l0.004,0Z" style="fill:#fff;fill-rule:nonzero;"/><path d="M16.005,23.704l28.866,0c0.609,0 1.108,-0.497 1.108,-1.11c0,-0.614 -0.499,-1.109 -1.108,-1.109l-28.866,0c-0.615,0 -1.113,0.495 -1.113,1.109c0,0.613 0.498,1.11 1.113,1.11" style="fill:#fff;fill-rule:nonzero;"/><path d="M16.005,30.366l28.866,0c0.609,0 1.108,-0.498 1.108,-1.11c0,-0.612 -0.499,-1.11 -1.108,-1.11l-28.866,0c-0.615,0 -1.113,0.498 -1.113,1.11c0,0.612 0.498,1.11 1.113,1.11" style="fill:#fff;fill-rule:nonzero;"/><path d="M23.777,34.806l-7.773,0c-0.615,0 -1.113,0.496 -1.113,1.108c0,0.614 0.498,1.112 1.113,1.112l7.773,0c0.607,0 1.108,-0.498 1.108,-1.112c0,-0.612 -0.501,-1.108 -1.108,-1.108" style="fill:#fff;fill-rule:nonzero;"/></svg>