<?xml version="1.0" encoding="UTF-8" standalone="no"?><!DOCTYPE svg PUBLIC "-//W3C//DTD SVG 1.1//EN" "http://www.w3.org/Graphics/SVG/1.1/DTD/svg11.dtd"><svg width="100%" height="100%" viewBox="0 0 53 53" version="1.1" xmlns="http://www.w3.org/2000/svg" xmlns:xlink="http://www.w3.org/1999/xlink" xml:space="preserve" xmlns:serif="http://www.serif.com/" style="fill-rule:evenodd;clip-rule:evenodd;stroke-linejoin:round;stroke-miterlimit:1.41421;"><g><path d="M36.325,46.398l-21.7,0c-0.428,0 -0.775,0.348 -0.775,0.777l0,1.548c0,0.429 0.347,0.777 0.775,0.777c0.428,0 0.775,-0.348 0.775,-0.777l0,-0.774l20.925,0c0.427,0 0.775,-0.347 0.775,-0.774c0,-0.429 -0.347,-0.777 -0.775,-0.777" style="fill:#f16a31;fill-rule:nonzero;"/><path d="M21.6,18.499l1.549,0l0,3.101l-1.549,0l0,-3.101Zm-1.55,3.875c0,0.427 0.347,0.775 0.774,0.775l3.101,0c0.428,0 0.775,-0.348 0.775,-0.775l0,-4.65c0,-0.426 -0.347,-0.774 -0.775,-0.774l-3.101,0c-0.426,0 -0.774,0.348 -0.774,0.774l0,4.65Z" style="fill:#f16a31;fill-rule:nonzero;"/><path d="M13.075,12.3l-9.3,0c-0.427,0 -0.775,0.348 -0.775,0.774l0,15.501c0,0.427 0.348,0.774 0.775,0.774c0.427,0 0.775,-0.347 0.775,-0.774l0,-14.727l8.525,0c0.427,0 0.775,-0.345 0.775,-0.774c0,-0.426 -0.347,-0.774 -0.775,-0.774" style="fill:#f16a31;fill-rule:nonzero;"/><path d="M41.749,37.099l1.551,0l0,3.101l-1.551,0l0,-3.101Zm-1.549,3.875c0,0.427 0.347,0.775 0.775,0.775l3.099,0c0.428,0 0.776,-0.348 0.776,-0.775l0,-4.65c0,-0.426 -0.348,-0.774 -0.776,-0.774l-3.099,0c-0.428,0 -0.775,0.348 -0.775,0.774l0,4.65Z" style="fill:#f16a31;fill-rule:nonzero;"/><path d="M6.875,43.299c-1.283,0 -2.325,-1.041 -2.325,-2.325c0,-3.859 1.038,-8.526 2.325,-8.526c1.288,0 2.325,4.667 2.325,8.526c0,1.284 -1.043,2.325 -2.325,2.325m0,-12.399c-3.831,0 -3.875,9.974 -3.875,10.074c0,1.871 1.334,3.438 3.101,3.797l0,3.952c0,0.429 0.346,0.777 0.774,0.777c0.428,0 0.775,-0.348 0.775,-0.777l0,-3.952c1.767,-0.359 3.101,-1.926 3.101,-3.797c0,-0.1 -0.045,-10.074 -3.876,-10.074" style="fill:#f16a31;fill-rule:nonzero;"/><path d="M11.525,26.25l-3.099,0c-0.428,0 -0.776,0.348 -0.776,0.774l0,1.551c0,0.427 0.348,0.774 0.776,0.774c0.426,0 0.774,-0.347 0.774,-0.774l0,-0.777l1.551,0l0,3.876c0,0.429 0.346,0.774 0.774,0.774c0.428,0 0.775,-0.345 0.775,-0.774l0,-4.65c0,-0.426 -0.347,-0.774 -0.775,-0.774" style="fill:#f16a31;fill-rule:nonzero;"/><path d="M41.749,18.499l1.551,0l0,3.101l-1.551,0l0,-3.101Zm-0.774,4.65l3.099,0c0.428,0 0.776,-0.346 0.776,-0.775l0,-4.65c0,-0.426 -0.348,-0.774 -0.776,-0.774l-3.099,0c-0.428,0 -0.775,0.348 -0.775,0.774l0,4.65c0,0.429 0.347,0.775 0.775,0.775" style="fill:#f16a31;fill-rule:nonzero;"/><path d="M10.75,21.6l-1.551,0l0,-3.101l1.551,0l0,3.101Zm0.774,-4.65l-3.099,0c-0.428,0 -0.775,0.348 -0.775,0.774l0,4.65c0,0.427 0.347,0.775 0.775,0.775l3.099,0c0.428,0 0.776,-0.348 0.776,-0.775l0,-4.65c0,-0.426 -0.348,-0.774 -0.776,-0.774" style="fill:#f16a31;fill-rule:nonzero;"/><path d="M29.35,18.499l1.55,0l0,3.101l-1.55,0l0,-3.101Zm-1.551,3.875c0,0.427 0.348,0.775 0.776,0.775l3.1,0c0.427,0 0.774,-0.348 0.774,-0.775l0,-4.65c0,-0.426 -0.347,-0.774 -0.774,-0.774l-3.1,0c-0.428,0 -0.776,0.348 -0.776,0.774l0,4.65Z" style="fill:#f16a31;fill-rule:nonzero;"/><path d="M47.175,47.949l-6.2,0c-0.427,0 -0.775,-0.347 -0.775,-0.774c0,-0.427 0.348,-0.777 0.775,-0.777c0.149,0 0.29,0.043 0.42,0.127c0.213,0.137 0.477,0.162 0.711,0.066c0.235,-0.093 0.407,-0.297 0.464,-0.542c0.164,-0.706 0.783,-1.199 1.505,-1.199c0.723,0 1.341,0.493 1.505,1.199c0.057,0.245 0.229,0.449 0.463,0.542c0.235,0.096 0.5,0.071 0.712,-0.066c0.504,-0.324 1.195,0.073 1.195,0.65c0,0.427 -0.348,0.774 -0.775,0.774m1.55,-35.649l-9.3,0c-0.427,0 -0.775,0.348 -0.775,0.774c0,0.427 0.348,0.774 0.775,0.774l8.525,0l0,31.145c-0.244,-0.088 -0.502,-0.143 -0.775,-0.143c-0.134,0 -0.266,0.012 -0.399,0.034c-0.534,-0.963 -1.552,-1.585 -2.701,-1.585c-1.149,0 -2.166,0.622 -2.701,1.585c-0.132,-0.022 -0.265,-0.034 -0.399,-0.034c-1.282,0 -2.325,1.042 -2.325,2.325c0,1.281 1.043,2.325 2.325,2.325l6.2,0c1.282,0 2.325,-1.044 2.325,-2.325l0,-34.101c0,-0.426 -0.348,-0.774 -0.775,-0.774" style="fill:#f16a31;fill-rule:nonzero;"/><path d="M29.35,9.199l1.55,0l0,3.101l-1.55,0l0,-3.101Zm-0.775,4.65l3.1,0c0.427,0 0.774,-0.346 0.774,-0.775l0,-4.65c0,-0.426 -0.347,-0.774 -0.774,-0.774l-3.1,0c-0.428,0 -0.776,0.348 -0.776,0.774l0,4.65c0,0.429 0.348,0.775 0.776,0.775" style="fill:#f16a31;fill-rule:nonzero;"/><path d="M29.35,27.799l1.55,0l0,3.101l-1.55,0l0,-3.101Zm-1.551,3.875c0,0.427 0.348,0.775 0.776,0.775l3.1,0c0.427,0 0.774,-0.348 0.774,-0.775l0,-4.65c0,-0.426 -0.347,-0.774 -0.774,-0.774l-3.1,0c-0.428,0 -0.776,0.348 -0.776,0.774l0,4.65Z" style="fill:#f16a31;fill-rule:nonzero;"/><path d="M21.6,9.199l1.549,0l0,3.101l-1.549,0l0,-3.101Zm-0.776,4.65l3.101,0c0.428,0 0.775,-0.346 0.775,-0.775l0,-4.65c0,-0.426 -0.347,-0.774 -0.775,-0.774l-3.101,0c-0.426,0 -0.774,0.348 -0.774,0.774l0,4.65c0,0.429 0.347,0.775 0.774,0.775" style="fill:#f16a31;fill-rule:nonzero;"/><path d="M25.699,40.425c-0.139,0.147 -0.224,0.347 -0.224,0.55c0,0.201 0.085,0.403 0.224,0.548c0.148,0.141 0.349,0.226 0.551,0.226c0.202,0 0.403,-0.085 0.55,-0.226c0.14,-0.145 0.226,-0.347 0.226,-0.548c0,-0.203 -0.086,-0.403 -0.226,-0.55c-0.295,-0.289 -0.805,-0.289 -1.101,0" style="fill:#f16a31;fill-rule:nonzero;"/><path d="M21.6,27.799l1.549,0l0,3.101l-1.549,0l0,-3.101Zm-1.55,3.875c0,0.427 0.347,0.775 0.774,0.775l3.101,0c0.428,0 0.775,-0.348 0.775,-0.775l0,-4.65c0,-0.426 -0.347,-0.774 -0.775,-0.774l-3.101,0c-0.426,0 -0.774,0.348 -0.774,0.774l0,4.65Z" style="fill:#f16a31;fill-rule:nonzero;"/><path d="M18.5,36.324c0,0.429 0.347,0.774 0.775,0.774l2.325,0l0,6.975c0,0.429 0.348,0.777 0.776,0.777c0.426,0 0.774,-0.348 0.774,-0.777l0,-6.975l6.201,0l0,6.975c0,0.429 0.346,0.777 0.774,0.777c0.428,0 0.775,-0.348 0.775,-0.777l0,-6.975l2.325,0c0.428,0 0.776,-0.345 0.776,-0.774c0,-0.426 -0.348,-0.774 -0.776,-0.774l-13.95,0c-0.428,0 -0.775,0.348 -0.775,0.774" style="fill:#f16a31;fill-rule:nonzero;"/><path d="M41.749,27.799l1.551,0l0,3.101l-1.551,0l0,-3.101Zm-1.549,3.875c0,0.427 0.347,0.775 0.775,0.775l3.099,0c0.428,0 0.776,-0.348 0.776,-0.775l0,-4.65c0,-0.426 -0.348,-0.774 -0.776,-0.774l-3.099,0c-0.428,0 -0.775,0.348 -0.775,0.774l0,4.65Z" style="fill:#f16a31;fill-rule:nonzero;"/><path d="M36.325,3l-20.15,0c-0.427,0 -0.775,0.348 -0.775,0.774l0,40.299c0,0.429 0.348,0.777 0.775,0.777c0.427,0 0.775,-0.348 0.775,-0.777l0,-39.525l18.6,0l0,39.525c0,0.429 0.348,0.777 0.775,0.777c0.427,0 0.775,-0.348 0.775,-0.777l0,-40.299c0,-0.426 -0.347,-0.774 -0.775,-0.774" style="fill:#f16a31;fill-rule:nonzero;"/></g></svg>