<?xml version="1.0" encoding="UTF-8" standalone="no"?><!DOCTYPE svg PUBLIC "-//W3C//DTD SVG 1.1//EN" "http://www.w3.org/Graphics/SVG/1.1/DTD/svg11.dtd"><svg width="100%" height="100%" viewBox="0 0 74 75" version="1.1" xmlns="http://www.w3.org/2000/svg" xmlns:xlink="http://www.w3.org/1999/xlink" xml:space="preserve" xmlns:serif="http://www.serif.com/" style="fill-rule:evenodd;clip-rule:evenodd;stroke-linejoin:round;stroke-miterlimit:1.41421;"><path d="M48.486,47.002c-3.025,0 -5.949,-0.61 -8.692,-1.815c-0.711,-0.312 -1.509,-0.141 -2.031,0.369c-0.006,0.006 -0.012,0.011 -0.018,0.017l-6.204,6.204l-5.058,0c-1.02,0 -1.847,0.826 -1.847,1.846l0,3.975l-1.81,0c-1.02,0 -1.848,0.828 -1.848,1.848l0,1.811l-4.518,0c-1.019,0 -1.847,0.828 -1.847,1.846l0,5.606l-2.599,2.595l-8.319,0l0,-2.61l22.579,-22.58c0.65,-0.648 0.65,-1.702 0,-2.35c-0.649,-0.65 -1.701,-0.65 -2.352,0l-20.227,20.227l0,-3.336l24.565,-24.567c0.006,-0.006 0.009,-0.01 0.014,-0.016c0.51,-0.524 0.682,-1.322 0.37,-2.033c-1.201,-2.743 -1.813,-5.668 -1.813,-8.691c0,-11.94 9.715,-21.654 21.655,-21.654c11.94,0 21.654,9.714 21.654,21.654c0,11.94 -9.714,21.654 -21.654,21.654m0,-47.002c-13.977,0 -25.348,11.371 -25.348,25.348c0,3.108 0.552,6.126 1.641,8.996l-24.239,24.24c-0.345,0.345 -0.54,0.816 -0.54,1.305l0,13.264c0,1.019 0.828,1.847 1.847,1.847l10.93,0c0.491,0 0.959,-0.195 1.305,-0.54l3.684,-3.677c0.347,-0.348 0.542,-0.817 0.542,-1.309l0,-4.523l4.518,0c1.018,0 1.846,-0.826 1.846,-1.848l0,-1.81l1.811,0c1.021,0 1.846,-0.825 1.846,-1.847l0,-3.975l3.977,0c0.489,0 0.96,-0.193 1.306,-0.541l5.877,-5.877c2.868,1.092 5.888,1.644 8.996,1.644c13.977,0 25.348,-11.372 25.348,-25.349c0,-13.977 -11.37,-25.348 -25.347,-25.348" style="fill:#f16a31;fill-rule:nonzero;"/><path d="M56.2,20.858c-1.779,0 -3.225,-1.446 -3.225,-3.224c0,-1.779 1.446,-3.226 3.225,-3.226c1.779,0 3.225,1.447 3.225,3.226c0,1.778 -1.446,3.224 -3.225,3.224m0,-10.145c-3.816,0 -6.92,3.105 -6.92,6.921c0,3.816 3.104,6.92 6.92,6.92c3.816,0 6.919,-3.104 6.919,-6.92c0,-3.816 -3.103,-6.921 -6.919,-6.921" style="fill:#f16a31;fill-rule:nonzero;"/></svg>