<?xml version="1.0" encoding="UTF-8" standalone="no"?><!DOCTYPE svg PUBLIC "-//W3C//DTD SVG 1.1//EN" "http://www.w3.org/Graphics/SVG/1.1/DTD/svg11.dtd"><svg width="100%" height="100%" viewBox="0 0 70 70" version="1.1" xmlns="http://www.w3.org/2000/svg" xmlns:xlink="http://www.w3.org/1999/xlink" xml:space="preserve" xmlns:serif="http://www.serif.com/" style="fill-rule:evenodd;clip-rule:evenodd;stroke-linejoin:round;stroke-miterlimit:1.41421;"><path d="M24.134,16.222c0,-0.04 0.011,-0.081 0.011,-0.111c0.456,-9.834 7.44,-10.891 10.431,-10.891l0.163,0c3.704,0.081 10.002,1.59 10.425,10.891c0,0.041 0,0.086 0.017,0.111c0.012,0.096 0.975,9.425 -3.39,14.339c-1.73,1.948 -4.032,2.91 -7.065,2.937l-0.069,0l-0.069,0c-3.018,-0.027 -5.337,-0.989 -7.052,-2.937c-4.348,-4.884 -3.417,-14.258 -3.402,-14.339m10.304,20.978l0.436,0c4.023,-0.071 7.275,-1.482 9.674,-4.185c5.284,-5.951 4.407,-16.16 4.309,-17.136c-0.343,-7.313 -3.801,-10.812 -6.655,-12.446c-2.124,-1.219 -4.61,-1.878 -7.38,-1.933l-0.096,0l-0.056,0l-0.082,0c-1.524,0 -4.515,0.249 -7.382,1.881c-2.88,1.63 -6.393,5.131 -6.736,12.498c-0.098,0.976 -0.975,11.185 4.309,17.136c2.387,2.703 5.639,4.114 9.659,4.185" style="fill:#fff;fill-rule:nonzero;"/><path d="M62.853,54.131l0,-0.04c0,-0.111 -0.015,-0.218 -0.015,-0.344c-0.081,-2.713 -0.259,-9.07 -6.213,-11.1c-0.043,-0.01 -0.097,-0.025 -0.139,-0.04c-6.188,-1.578 -11.333,-5.142 -11.388,-5.187c-0.837,-0.588 -1.989,-0.384 -2.58,0.454c-0.588,0.836 -0.384,1.989 0.454,2.577c0.231,0.167 5.694,3.968 12.527,5.723c3.196,1.14 3.553,4.555 3.648,7.684c0,0.122 0,0.233 0.015,0.344c0.012,1.234 -0.071,3.144 -0.287,4.24c-2.224,1.262 -10.935,5.624 -24.19,5.624c-13.2,0 -21.968,-4.377 -24.203,-5.639c-0.22,-1.096 -0.316,-3.006 -0.288,-4.24c0,-0.111 0.012,-0.218 0.012,-0.344c0.096,-3.127 0.455,-6.544 3.651,-7.683c6.833,-1.755 12.293,-5.568 12.528,-5.719c0.836,-0.591 1.043,-1.742 0.452,-2.582c-0.59,-0.834 -1.745,-1.042 -2.58,-0.45c-0.056,0.041 -5.174,3.608 -11.388,5.183c-0.054,0.015 -0.098,0.03 -0.137,0.045c-5.956,2.04 -6.132,8.397 -6.217,11.098c0,0.123 0,0.234 -0.011,0.341l0,0.043c-0.015,0.716 -0.028,4.374 0.698,6.218c0.136,0.354 0.382,0.657 0.714,0.861c0.412,0.277 10.278,6.558 26.781,6.558c16.507,0 26.37,-6.296 26.784,-6.558c0.316,-0.204 0.577,-0.507 0.714,-0.861c0.685,-1.827 0.673,-5.492 0.658,-6.206" style="fill:#fff;fill-rule:nonzero;"/></svg>