<?xml version="1.0" encoding="UTF-8" standalone="no"?><!DOCTYPE svg PUBLIC "-//W3C//DTD SVG 1.1//EN" "http://www.w3.org/Graphics/SVG/1.1/DTD/svg11.dtd"><svg width="100%" height="100%" viewBox="0 0 53 53" version="1.1" xmlns="http://www.w3.org/2000/svg" xmlns:xlink="http://www.w3.org/1999/xlink" xml:space="preserve" xmlns:serif="http://www.serif.com/" style="fill-rule:evenodd;clip-rule:evenodd;stroke-linejoin:round;stroke-miterlimit:1.41421;"><g><path d="M33.954,34.888c-3.19,5.716 -6.314,10.458 -6.445,10.656l-1.26,1.909l-1.258,-1.907c-0.133,-0.201 -3.28,-4.986 -6.445,-10.658c-4.366,-7.821 -6.579,-13.404 -6.579,-16.59c0,-7.876 6.408,-14.282 14.282,-14.282c7.877,0 14.282,6.406 14.282,14.282c0,3.186 -2.212,8.769 -6.577,16.59m-7.705,-33.388c-9.262,0 -16.799,7.535 -16.799,16.798c0,3.722 2.193,9.384 6.897,17.815c3.211,5.755 6.408,10.614 6.543,10.818l2.31,3.503c0.233,0.353 0.627,0.566 1.049,0.566c0.424,0 0.82,-0.213 1.051,-0.566l2.31,-3.503c0.134,-0.203 3.307,-5.019 6.542,-10.818c4.706,-8.431 6.898,-14.092 6.898,-17.815c0,-9.263 -7.537,-16.798 -16.801,-16.798" style="fill:#f16a31;fill-rule:nonzero;"/><path d="M26.25,24.99c-3.747,0 -6.796,-3.05 -6.796,-6.796c0,-3.749 3.049,-6.798 6.796,-6.798c3.747,0 6.798,3.049 6.798,6.798c0,3.746 -3.051,6.796 -6.798,6.796m0,-16.112c-5.136,0 -9.313,4.179 -9.313,9.316c0,5.135 4.177,9.313 9.313,9.313c5.136,0 9.315,-4.178 9.315,-9.313c0,-5.137 -4.179,-9.316 -9.315,-9.316" style="fill:#f16a31;fill-rule:nonzero;"/></g></svg>