<?xml version="1.0" encoding="UTF-8" standalone="no"?><!DOCTYPE svg PUBLIC "-//W3C//DTD SVG 1.1//EN" "http://www.w3.org/Graphics/SVG/1.1/DTD/svg11.dtd"><svg width="100%" height="100%" viewBox="0 0 70 70" version="1.1" xmlns="http://www.w3.org/2000/svg" xmlns:xlink="http://www.w3.org/1999/xlink" xml:space="preserve" xmlns:serif="http://www.serif.com/" style="fill-rule:evenodd;clip-rule:evenodd;stroke-linejoin:round;stroke-miterlimit:1.41421;"><path d="M57.799,34.109c-1.114,0 -1.977,0.858 -1.977,1.979l0,27.03l-14.023,0l0,-11.039c0,-1.035 -0.864,-1.938 -1.907,-1.938l-10.137,0c-1.113,0 -2.013,0.903 -2.013,1.938l0,11.039l-13.986,0l0,-26.133c0,-1.043 -0.862,-1.908 -1.975,-1.908c-1.043,0 -1.907,0.865 -1.907,1.908l0,28.111c0,1.044 0.864,1.91 1.907,1.91l17.974,0c1.043,0 1.907,-0.866 1.907,-1.91l0,-11.037l6.253,0l0,11.037c0,1.044 0.863,1.91 1.977,1.91l17.907,0c1.043,0 1.907,-0.866 1.907,-1.91l0,-29.008c0,-1.121 -0.864,-1.979 -1.907,-1.979" style="fill:#fff;fill-rule:nonzero;"/><path d="M68.55,35.652l-15.603,-15.669l0,-10.685c0,-1.114 -0.903,-1.972 -2.016,-1.972c-1.043,0 -1.908,0.858 -1.908,1.972l0,6.764l-12.867,-12.945c-0.395,-0.401 -0.864,-0.617 -1.329,-0.617c-0.545,0 -1.008,0.224 -1.406,0.617l-32.319,32.32c-0.777,0.773 -0.828,2.015 0,2.73c0.719,0.828 1.958,0.773 2.73,0l30.995,-30.918l30.916,31.209c0.326,0.321 0.791,0.507 1.406,0.507c0.537,0 1.002,-0.186 1.401,-0.507c0.718,-0.72 0.774,-2.025 0,-2.806" style="fill:#fff;fill-rule:nonzero;"/></svg>