<?xml version="1.0" encoding="UTF-8" standalone="no"?><!DOCTYPE svg PUBLIC "-//W3C//DTD SVG 1.1//EN" "http://www.w3.org/Graphics/SVG/1.1/DTD/svg11.dtd"><svg width="100%" height="100%" viewBox="0 0 53 53" version="1.1" xmlns="http://www.w3.org/2000/svg" xmlns:xlink="http://www.w3.org/1999/xlink" xml:space="preserve" xmlns:serif="http://www.serif.com/" style="fill-rule:evenodd;clip-rule:evenodd;stroke-linejoin:round;stroke-miterlimit:1.41421;"><path d="M29.165,48.398c2.924,-2.784 5.234,-6.072 6.845,-9.68c2.178,0.781 4.262,1.828 6.22,3.128c-3.42,3.503 -7.976,5.886 -13.065,6.552m-18.894,-6.552c1.958,-1.3 4.043,-2.347 6.219,-3.128c1.611,3.607 3.922,6.896 6.846,9.68c-5.09,-0.666 -9.646,-3.049 -13.065,-6.552m28.369,-14.769l9.935,0c-0.189,5.141 -2.118,9.842 -5.22,13.53c-2.11,-1.426 -4.36,-2.567 -6.713,-3.419c1.22,-3.193 1.906,-6.602 1.998,-10.111m-11.562,8.307l0,-8.307l9.908,0c-0.094,3.326 -0.747,6.558 -1.914,9.584c-2.576,-0.776 -5.257,-1.203 -7.994,-1.277m0,12.678l0,-11.022c2.514,0.071 4.979,0.46 7.352,1.158c-1.69,3.731 -4.179,7.095 -7.352,9.864m-1.655,-11.022l0,11.022c-3.174,-2.769 -5.661,-6.133 -7.352,-9.862c2.372,-0.7 4.837,-1.089 7.352,-1.16m-9.908,-9.963l9.908,0l0,8.307c-2.737,0.074 -5.419,0.501 -7.995,1.276c-1.166,-3.025 -1.82,-6.257 -1.913,-9.583m1.293,-14.008c-2.108,-0.728 -4.13,-1.701 -6.036,-2.911c3.358,-3.232 7.719,-5.423 12.566,-6.056c-2.734,2.6 -4.94,5.635 -6.53,8.967m18.884,0c-1.59,-3.332 -3.796,-6.367 -6.527,-8.967c4.845,0.633 9.206,2.824 12.565,6.056c-1.907,1.21 -3.93,2.183 -6.038,2.911m-8.614,1.564l0,-10.195c2.964,2.586 5.333,5.691 7.01,9.134c-2.269,0.637 -4.617,0.994 -7.01,1.061m0,1.655c2.63,-0.07 5.213,-0.467 7.703,-1.19c1.35,3.236 2.105,6.725 2.207,10.325l-9.91,0l0,-9.135Zm-1.655,0l0,9.135l-9.908,0c0.102,-3.6 0.857,-7.089 2.207,-10.325c2.487,0.722 5.07,1.12 7.701,1.19m0,-1.655c-2.393,-0.067 -4.741,-0.424 -7.01,-1.061c1.677,-3.443 4.045,-6.548 7.01,-9.134l0,10.195Zm23.152,10.79l-9.935,0c-0.101,-3.774 -0.875,-7.44 -2.275,-10.838c2.287,-0.802 4.478,-1.873 6.537,-3.213c3.366,3.761 5.475,8.664 5.673,14.051m-38.977,-14.051c2.059,1.34 4.25,2.411 6.538,3.213c-1.4,3.398 -2.175,7.064 -2.276,10.838l-9.934,0c0.198,-5.387 2.307,-10.29 5.672,-14.051m-5.672,15.705l9.934,0c0.092,3.509 0.779,6.918 1.998,10.111c-2.353,0.852 -4.603,1.993 -6.713,3.419c-3.101,-3.688 -5.03,-8.389 -5.219,-13.53m40.272,15.081c3.761,-4.238 6.052,-9.81 6.052,-15.908c0,-6.344 -2.479,-12.119 -6.514,-16.415l0,-0.001c-0.003,-0.005 -0.008,-0.006 -0.01,-0.011c-4.204,-4.467 -10.094,-7.327 -16.643,-7.551l-0.001,0l-0.468,-0.014c-0.122,-0.003 -0.242,-0.008 -0.364,-0.008c-0.121,0 -0.242,0.005 -0.362,0.008l-0.467,0.014c-6.551,0.224 -12.439,3.084 -16.643,7.551c-0.004,0.005 -0.008,0.006 -0.011,0.011c0,0 0,0.001 -0.001,0.002c-4.036,4.295 -6.516,10.07 -6.516,16.414c0,6.098 2.291,11.67 6.052,15.908c0.004,0.008 0.004,0.016 0.01,0.022c0.016,0.022 0.036,0.032 0.052,0.05c4.225,4.725 10.289,7.767 17.056,7.998l0.001,0.002l0.465,0.013c0.122,0.002 0.243,0.007 0.364,0.007c0.122,0 0.242,-0.005 0.364,-0.008l0.466,-0.014c6.774,-0.232 12.844,-3.28 17.069,-8.014c0.011,-0.015 0.029,-0.02 0.039,-0.034c0.006,-0.006 0.006,-0.014 0.01,-0.022" style="fill:#f16a31;fill-rule:nonzero;"/></svg>