<?xml version="1.0" encoding="UTF-8" standalone="no"?><!DOCTYPE svg PUBLIC "-//W3C//DTD SVG 1.1//EN" "http://www.w3.org/Graphics/SVG/1.1/DTD/svg11.dtd"><svg width="100%" height="100%" viewBox="0 0 53 53" version="1.1" xmlns="http://www.w3.org/2000/svg" xmlns:xlink="http://www.w3.org/1999/xlink" xml:space="preserve" xmlns:serif="http://www.serif.com/" style="fill-rule:evenodd;clip-rule:evenodd;stroke-linejoin:round;stroke-miterlimit:1.41421;"><path d="M40.721,48.212c-3.35,0 -6.074,-2.723 -6.074,-6.074c0,-3.35 2.724,-6.074 6.074,-6.074c3.35,0 6.074,2.724 6.074,6.074c0,3.351 -2.724,6.074 -6.074,6.074m-28.943,-15.899c-3.351,0 -6.075,-2.724 -6.075,-6.074c0,-3.351 2.724,-6.075 6.075,-6.075c3.35,0 6.074,2.724 6.074,6.075c0,3.35 -2.735,6.074 -6.074,6.074m28.943,-28.03c3.35,0 6.074,2.724 6.074,6.075c0,3.352 -2.724,6.074 -6.074,6.074c-3.35,0 -6.074,-2.722 -6.074,-6.074c0,-3.351 2.735,-6.075 6.074,-6.075m0,29.016c-2.847,0 -5.386,1.356 -7.009,3.455l-13.599,-7.596c0.319,-0.914 0.493,-1.902 0.493,-2.919c0,-1.029 -0.174,-2.006 -0.502,-2.928l13.587,-7.586c1.613,2.106 4.163,3.472 7.02,3.472c4.872,0 8.849,-3.966 8.849,-8.849c0,-4.882 -3.967,-8.848 -8.849,-8.848c-4.882,0 -8.851,3.966 -8.851,8.848c0,1.029 0.176,2.015 0.505,2.93l-13.578,7.585c-1.612,-2.119 -4.162,-3.475 -7.021,-3.475c-4.872,0 -8.847,3.97 -8.847,8.851c0,4.88 3.975,8.85 8.859,8.85c2.858,0 5.405,-1.367 7.03,-3.486l13.587,7.596c-0.328,0.925 -0.513,1.922 -0.513,2.95c0,4.873 3.968,8.851 8.85,8.851c4.881,0 8.849,-3.97 8.849,-8.851c0,-4.88 -3.978,-8.85 -8.86,-8.85" style="fill:#fff;fill-rule:nonzero;"/></svg>