<?xml version="1.0" encoding="UTF-8" standalone="no"?><!DOCTYPE svg PUBLIC "-//W3C//DTD SVG 1.1//EN" "http://www.w3.org/Graphics/SVG/1.1/DTD/svg11.dtd"><svg width="100%" height="100%" viewBox="0 0 53 53" version="1.1" xmlns="http://www.w3.org/2000/svg" xmlns:xlink="http://www.w3.org/1999/xlink" xml:space="preserve" xmlns:serif="http://www.serif.com/" style="fill-rule:evenodd;clip-rule:evenodd;stroke-linejoin:round;stroke-miterlimit:1.41421;"><g><path d="M36.505,39.021c0.341,0.34 0.768,0.511 1.236,0.511c0.469,0 0.897,-0.171 1.237,-0.511l11.513,-11.513c0.084,-0.085 0.171,-0.171 0.213,-0.256c0,0 0.043,-0.043 0.043,-0.085c0.042,-0.085 0.083,-0.171 0.127,-0.214c0,-0.043 0,-0.084 0.042,-0.084c0.044,-0.085 0.044,-0.129 0.087,-0.214c0.042,-0.127 0.042,-0.214 0.042,-0.341c0,-0.127 0,-0.214 -0.042,-0.342c0,-0.084 -0.043,-0.17 -0.087,-0.212c0,-0.043 0,-0.087 -0.042,-0.087c-0.044,-0.083 -0.085,-0.169 -0.127,-0.254c0,0 0,-0.043 -0.043,-0.043c-0.042,-0.086 -0.129,-0.171 -0.213,-0.256l-11.513,-11.513c-0.681,-0.682 -1.793,-0.682 -2.473,0c-0.682,0.683 -0.682,1.792 0,2.474l8.527,8.529l-30.315,0c-0.982,0 -1.75,0.766 -1.75,1.747c0,0.98 0.768,1.748 1.75,1.748l30.315,0l-8.527,8.529c-0.682,0.595 -0.682,1.706 0,2.387" style="fill:#fff;fill-rule:nonzero;"/><path d="M3.203,51.003l23.024,0c0.982,0 1.75,-0.768 1.75,-1.749l0,-17.184c0,-0.98 -0.768,-1.748 -1.75,-1.748c-0.98,0 -1.746,0.768 -1.746,1.748l0,15.436l-19.531,0l0,-42.512l19.531,0l0,15.436c0,0.98 0.766,1.748 1.746,1.748c0.982,0 1.75,-0.768 1.75,-1.748l0,-17.184c0,-0.981 -0.768,-1.749 -1.75,-1.749l-23.024,0c-0.98,0 -1.748,0.768 -1.748,1.749l0,46.008c0.042,0.981 0.81,1.749 1.748,1.749" style="fill:#fff;fill-rule:nonzero;"/></g></svg>