<?xml version="1.0" encoding="UTF-8" standalone="no"?><!DOCTYPE svg PUBLIC "-//W3C//DTD SVG 1.1//EN" "http://www.w3.org/Graphics/SVG/1.1/DTD/svg11.dtd"><svg width="100%" height="100%" viewBox="0 0 68 80" version="1.1" xmlns="http://www.w3.org/2000/svg" xmlns:xlink="http://www.w3.org/1999/xlink" xml:space="preserve" xmlns:serif="http://www.serif.com/" style="fill-rule:evenodd;clip-rule:evenodd;stroke-linejoin:round;stroke-miterlimit:1.41421;"><path d="M21.027,17.555c0,-0.05 0.016,-0.098 0.016,-0.132c0.54,-11.729 8.867,-12.989 12.432,-12.989l0.197,0c4.417,0.098 11.926,1.898 12.435,12.989c0,0.049 0,0.099 0.015,0.132c0.015,0.114 1.161,11.238 -4.04,17.094c-2.062,2.323 -4.81,3.469 -8.425,3.501l-0.083,0l-0.081,0c-3.6,-0.032 -6.364,-1.178 -8.409,-3.501c-5.187,-5.822 -4.075,-16.997 -4.057,-17.094m12.285,25.014l0.523,0c4.794,-0.083 8.672,-1.767 11.535,-4.989c6.299,-7.103 5.25,-19.272 5.135,-20.435c-0.408,-8.719 -4.53,-12.891 -7.934,-14.838c-2.535,-1.456 -5.496,-2.241 -8.8,-2.307l-0.114,0l-0.066,0l-0.098,0c-1.816,0 -5.382,0.294 -8.803,2.241c-3.435,1.947 -7.623,6.119 -8.031,14.904c-0.114,1.163 -1.163,13.332 5.137,20.435c2.846,3.222 6.723,4.906 11.516,4.989" style="fill:#f16a31;fill-rule:nonzero;"/><path d="M67.193,62.755l0,-0.048c0,-0.132 -0.017,-0.262 -0.017,-0.411c-0.097,-3.238 -0.31,-10.813 -7.41,-13.233c-0.049,-0.018 -0.114,-0.033 -0.165,-0.049c-7.377,-1.883 -13.51,-6.135 -13.576,-6.185c-0.998,-0.703 -2.372,-0.457 -3.077,0.54c-0.703,0.998 -0.459,2.372 0.54,3.077c0.279,0.196 6.791,4.726 14.936,6.82c3.811,1.359 4.237,5.433 4.354,9.162c0,0.147 0,0.279 0.014,0.41c0.016,1.471 -0.081,3.747 -0.342,5.055c-2.652,1.504 -13.04,6.706 -28.844,6.706c-15.736,0 -26.191,-5.218 -28.857,-6.723c-0.261,-1.309 -0.376,-3.583 -0.343,-5.055c0,-0.132 0.015,-0.262 0.015,-0.409c0.115,-3.731 0.54,-7.805 4.353,-9.162c8.146,-2.093 14.658,-6.642 14.937,-6.822c0.996,-0.704 1.242,-2.078 0.538,-3.075c-0.703,-0.999 -2.077,-1.244 -3.076,-0.54c-0.065,0.049 -6.167,4.303 -13.578,6.184c-0.065,0.017 -0.114,0.033 -0.164,0.048c-7.099,2.438 -7.312,10.013 -7.41,13.236c0,0.147 0,0.278 -0.016,0.408l0,0.05c-0.017,0.852 -0.033,5.218 0.834,7.411c0.163,0.425 0.457,0.785 0.85,1.031c0.491,0.327 12.254,7.819 31.935,7.819c19.68,0 31.442,-7.509 31.934,-7.819c0.375,-0.246 0.685,-0.606 0.85,-1.031c0.816,-2.176 0.803,-6.544 0.785,-7.395" style="fill:#f16a31;fill-rule:nonzero;"/></svg>