<?xml version="1.0" encoding="UTF-8" standalone="no"?><!DOCTYPE svg PUBLIC "-//W3C//DTD SVG 1.1//EN" "http://www.w3.org/Graphics/SVG/1.1/DTD/svg11.dtd"><svg width="100%" height="100%" viewBox="0 0 53 53" version="1.1" xmlns="http://www.w3.org/2000/svg" xmlns:xlink="http://www.w3.org/1999/xlink" xml:space="preserve" xmlns:serif="http://www.serif.com/" style="fill-rule:evenodd;clip-rule:evenodd;stroke-linejoin:round;stroke-miterlimit:1.41421;"><g><g><path d="M49.595,37.923c0,1.754 -1.428,3.183 -3.183,3.183l-40.324,0c-1.755,0 -3.183,-1.429 -3.183,-3.183l0,-23.346c0,-1.754 1.428,-3.183 3.183,-3.183l40.324,0c1.755,0 3.183,1.429 3.183,3.183l0,23.346Zm-3.183,-28.651l-40.324,0c-2.925,0 -5.306,2.381 -5.306,5.305l0,23.346c0,2.924 2.381,5.305 5.306,5.305l40.324,0c2.924,0 5.306,-2.381 5.306,-5.305l0,-23.346c0,-2.924 -2.381,-5.305 -5.306,-5.305" style="fill:#f16a31;fill-rule:nonzero;"/><path d="M49.595,22.005l-46.69,0l0,-4.245l46.69,0l0,4.245Zm1.062,-6.367l-48.813,0c-0.586,0 -1.062,0.475 -1.062,1.062l0,6.366c0,0.586 0.476,1.062 1.062,1.062l48.813,0c0.585,0 1.061,-0.476 1.061,-1.062l0,-6.366c0,-0.587 -0.476,-1.062 -1.061,-1.062" style="fill:#f16a31;fill-rule:nonzero;"/><path d="M20.945,30.495l-12.734,0c-0.587,0 -1.061,0.475 -1.061,1.061c0,0.585 0.474,1.061 1.061,1.061l12.734,0c0.585,0 1.06,-0.477 1.06,-1.061c0,-0.586 -0.475,-1.061 -1.06,-1.061" style="fill:#f16a31;fill-rule:nonzero;"/><path d="M20.945,34.739l-12.734,0c-0.587,0 -1.061,0.475 -1.061,1.061c0,0.586 0.474,1.062 1.061,1.062l12.734,0c0.585,0 1.06,-0.476 1.06,-1.062c0,-0.586 -0.475,-1.061 -1.06,-1.061" style="fill:#f16a31;fill-rule:nonzero;"/><path d="M43.228,33.677c0,0.587 -0.476,1.062 -1.061,1.062l-2.122,0c-0.586,0 -1.061,-0.475 -1.061,-1.062l0,-2.122c0,-0.585 0.475,-1.06 1.061,-1.06l2.122,0c0.585,0 1.061,0.475 1.061,1.06l0,2.122Zm-1.061,-5.305l-2.122,0c-1.755,0 -3.183,1.428 -3.183,3.183l0,2.122c0,1.756 1.428,3.185 3.183,3.185l2.122,0c1.755,0 3.184,-1.429 3.184,-3.185l0,-2.122c0,-1.755 -1.429,-3.183 -3.184,-3.183" style="fill:#f16a31;fill-rule:nonzero;"/></g></g></svg>