<?xml version="1.0" encoding="UTF-8" standalone="no"?><!DOCTYPE svg PUBLIC "-//W3C//DTD SVG 1.1//EN" "http://www.w3.org/Graphics/SVG/1.1/DTD/svg11.dtd"><svg width="100%" height="100%" viewBox="0 0 53 53" version="1.1" xmlns="http://www.w3.org/2000/svg" xmlns:xlink="http://www.w3.org/1999/xlink" xml:space="preserve" xmlns:serif="http://www.serif.com/" style="fill-rule:evenodd;clip-rule:evenodd;stroke-linejoin:round;stroke-miterlimit:1.41421;"><g><path d="M36.64,49.35l-20.781,0c-1.094,0 -1.984,-0.891 -1.984,-1.985l0,-6.265l24.75,0l0,6.265c0,1.094 -0.891,1.985 -1.985,1.985m-20.781,-46.2l20.781,0c1.094,0 1.985,0.891 1.985,1.985l0,1.315l-24.75,0l0,-1.315c0,-1.094 0.89,-1.985 1.984,-1.985m-1.984,4.95l24.75,0l0,31.35l-24.75,0l0,-31.35Zm22.765,-6.6l-20.781,0c-2.003,0 -3.633,1.631 -3.633,3.635l0,42.23c0,2.004 1.63,3.635 3.633,3.635l20.781,0c2.004,0 3.635,-1.631 3.635,-3.635l0,-42.23c0,-2.004 -1.631,-3.635 -3.635,-3.635" style="fill:#f16a31;fill-rule:nonzero;"/><path d="M26.25,46.875c-0.91,0 -1.65,-0.741 -1.65,-1.65c0,-0.91 0.74,-1.65 1.65,-1.65c0.909,0 1.649,0.74 1.649,1.65c0,0.909 -0.74,1.65 -1.649,1.65m0,-4.95c-1.821,0 -3.301,1.479 -3.301,3.3c0,1.82 1.48,3.3 3.301,3.3c1.82,0 3.3,-1.48 3.3,-3.3c0,-1.821 -1.48,-3.3 -3.3,-3.3" style="fill:#f16a31;fill-rule:nonzero;"/><path d="M22.949,5.625l3.301,0c0.456,0 0.825,-0.369 0.825,-0.825c0,-0.456 -0.369,-0.825 -0.825,-0.825l-3.301,0c-0.455,0 -0.824,0.369 -0.824,0.825c0,0.456 0.369,0.825 0.824,0.825" style="fill:#f16a31;fill-rule:nonzero;"/><path d="M28.725,5.625l0.825,0c0.456,0 0.824,-0.369 0.824,-0.825c0,-0.456 -0.368,-0.825 -0.824,-0.825l-0.825,0c-0.456,0 -0.826,0.369 -0.826,0.825c0,0.456 0.37,0.825 0.826,0.825" style="fill:#f16a31;fill-rule:nonzero;"/><path d="M48.205,5.269c-0.323,-0.323 -0.844,-0.323 -1.166,0c-0.323,0.323 -0.323,0.844 0,1.166c3.081,3.084 3.081,8.098 0,11.182c-0.323,0.322 -0.323,0.843 0,1.166c0.161,0.161 0.371,0.241 0.583,0.241c0.21,0 0.422,-0.08 0.583,-0.241c3.726,-3.725 3.726,-9.788 0,-13.514" style="fill:#f16a31;fill-rule:nonzero;"/><path d="M44.73,7.147c-0.322,-0.323 -0.844,-0.323 -1.166,0c-0.323,0.323 -0.323,0.844 0,1.166c1.021,1.022 1.583,2.381 1.583,3.828c0,1.446 -0.562,2.806 -1.583,3.826c-0.323,0.323 -0.323,0.845 0,1.166c0.161,0.162 0.372,0.244 0.583,0.244c0.212,0 0.422,-0.082 0.583,-0.244c1.333,-1.331 2.067,-3.104 2.067,-4.992c0,-1.888 -0.733,-3.662 -2.067,-4.994" style="fill:#f16a31;fill-rule:nonzero;"/><path d="M5.461,6.436c0.323,-0.323 0.323,-0.844 0,-1.166c-0.323,-0.323 -0.844,-0.323 -1.166,0c-3.726,3.725 -3.726,9.787 0,13.513c0.161,0.16 0.372,0.242 0.583,0.242c0.211,0 0.422,-0.082 0.583,-0.242c0.323,-0.323 0.323,-0.844 0,-1.167c-3.082,-3.082 -3.082,-8.097 0,-11.18" style="fill:#f16a31;fill-rule:nonzero;"/><path d="M8.936,6.919c-0.323,-0.322 -0.844,-0.322 -1.166,0c-1.334,1.331 -2.067,3.106 -2.067,4.993c0,1.889 0.733,3.662 2.067,4.994c0.161,0.16 0.371,0.242 0.581,0.242c0.212,0 0.424,-0.082 0.585,-0.242c0.323,-0.322 0.323,-0.843 0,-1.166c-1.021,-1.021 -1.582,-2.381 -1.582,-3.828c0,-1.448 0.561,-2.805 1.582,-3.826c0.321,-0.321 0.321,-0.844 0,-1.167" style="fill:#f16a31;fill-rule:nonzero;"/></g></svg>