<?xml version="1.0" encoding="UTF-8" standalone="no"?><!DOCTYPE svg PUBLIC "-//W3C//DTD SVG 1.1//EN" "http://www.w3.org/Graphics/SVG/1.1/DTD/svg11.dtd"><svg width="100%" height="100%" viewBox="0 0 53 53" version="1.1" xmlns="http://www.w3.org/2000/svg" xmlns:xlink="http://www.w3.org/1999/xlink" xml:space="preserve" xmlns:serif="http://www.serif.com/" style="fill-rule:evenodd;clip-rule:evenodd;stroke-linejoin:round;stroke-miterlimit:1.41421;"><g><path d="M18.372,12.498c0,-0.029 0.011,-0.061 0.011,-0.081c0.338,-7.35 5.555,-8.139 7.79,-8.139l0.123,0c2.768,0.062 7.473,1.189 7.79,8.139c0,0.031 0,0.06 0.011,0.081c0.01,0.073 0.728,7.042 -2.532,10.712c-1.292,1.457 -3.013,2.173 -5.278,2.194l-0.052,0l-0.052,0c-2.255,-0.021 -3.987,-0.737 -5.268,-2.194c-3.25,-3.649 -2.553,-10.65 -2.543,-10.712m7.698,15.673l0.328,0c3.004,-0.05 5.433,-1.106 7.227,-3.126c3.947,-4.448 3.291,-12.075 3.219,-12.803c-0.256,-5.463 -2.839,-8.077 -4.972,-9.297c-1.588,-0.912 -3.444,-1.403 -5.514,-1.446l-0.071,0l-0.042,0l-0.062,0c-1.137,0 -3.372,0.186 -5.515,1.405c-2.152,1.219 -4.776,3.834 -5.032,9.338c-0.073,0.728 -0.729,8.355 3.219,12.803c1.783,2.02 4.212,3.076 7.215,3.126" style="fill:#f16a31;fill-rule:nonzero;"/><path d="M47.3,40.821l0,-0.03c0,-0.083 -0.011,-0.164 -0.011,-0.256c-0.061,-2.031 -0.195,-6.777 -4.643,-8.294c-0.03,-0.01 -0.071,-0.02 -0.103,-0.031c-4.622,-1.178 -8.467,-3.842 -8.508,-3.874c-0.625,-0.441 -1.486,-0.286 -1.927,0.339c-0.44,0.623 -0.287,1.486 0.338,1.926c0.176,0.123 4.255,2.963 9.359,4.275c2.389,0.851 2.655,3.403 2.728,5.741c0,0.091 0,0.174 0.008,0.256c0.012,0.922 -0.05,2.346 -0.214,3.168c-1.66,0.942 -8.17,4.201 -18.072,4.201c-9.862,0 -16.412,-3.271 -18.081,-4.212c-0.165,-0.82 -0.237,-2.246 -0.216,-3.168c0,-0.082 0.01,-0.164 0.01,-0.257c0.071,-2.337 0.338,-4.889 2.726,-5.739c5.105,-1.312 9.185,-4.162 9.359,-4.276c0.626,-0.44 0.779,-1.3 0.339,-1.925c-0.441,-0.626 -1.302,-0.78 -1.927,-0.339c-0.041,0.031 -3.865,2.695 -8.508,3.874c-0.041,0.01 -0.072,0.021 -0.103,0.031c-4.449,1.527 -4.582,6.273 -4.644,8.293c0,0.093 0,0.174 -0.01,0.256l0,0.031c-0.01,0.533 -0.02,3.269 0.523,4.643c0.102,0.267 0.288,0.493 0.534,0.647c0.307,0.204 7.677,4.9 20.009,4.9c12.332,0 19.701,-4.705 20.009,-4.9c0.235,-0.154 0.431,-0.38 0.534,-0.647c0.512,-1.362 0.501,-4.1 0.491,-4.633" style="fill:#f16a31;fill-rule:nonzero;"/></g></svg>